<?xml version="1.0" standalone="no"?>
<!DOCTYPE svg PUBLIC "-//W3C//DTD SVG 20010904//EN"
 "http://www.w3.org/TR/2001/REC-SVG-20010904/DTD/svg10.dtd">
<svg version="1.0" xmlns="http://www.w3.org/2000/svg"
 width="514.000000pt" height="506.000000pt" viewBox="0 0 514.000000 506.000000"
 preserveAspectRatio="xMidYMid meet">

<g transform="translate(0.000000,506.000000) scale(0.100000,-0.100000)"
fill="#000000" stroke="none">
<path d="M286 4849 c-98 -109 -175 -293 -192 -458 l-7 -71 267 0 266 0 0
-1427 1 -1428 961 -680 c528 -374 968 -680 979 -680 10 0 459 306 998 680
l980 680 1 1428 0 1427 266 0 266 0 -6 58 c-24 202 -93 363 -209 490 l-40 42
-2237 0 -2238 0 -56 -61z"/>
</g>
</svg>
